<mxfile host="app.diagrams.net" modified="2022-04-18T01:57:47.855Z" agent="5.0 (Windows NT 10.0; Win64; x64) AppleWebKit/537.36 (KHTML, like Gecko) Chrome/100.0.4896.88 Safari/537.36" etag="u02CRog8C0QV6Q_BSISS" version="17.1.3" type="github">
  <diagram id="C5RBs43oDa-KdzZeNtuy" name="Page-1">
    <mxGraphModel dx="739" dy="1469" grid="1" gridSize="10" guides="1" tooltips="1" connect="1" arrows="1" fold="1" page="1" pageScale="1" pageWidth="827" pageHeight="1169" math="0" shadow="0">
      <root>
        <mxCell id="WIyWlLk6GJQsqaUBKTNV-0" />
        <mxCell id="WIyWlLk6GJQsqaUBKTNV-1" parent="WIyWlLk6GJQsqaUBKTNV-0" />
        <mxCell id="WIyWlLk6GJQsqaUBKTNV-2" value="" style="rounded=0;html=1;jettySize=auto;orthogonalLoop=1;fontSize=11;endArrow=block;endFill=0;endSize=8;strokeWidth=1;shadow=0;labelBackgroundColor=none;edgeStyle=orthogonalEdgeStyle;" parent="WIyWlLk6GJQsqaUBKTNV-1" source="WIyWlLk6GJQsqaUBKTNV-3" target="WIyWlLk6GJQsqaUBKTNV-6" edge="1">
          <mxGeometry relative="1" as="geometry" />
        </mxCell>
        <mxCell id="WIyWlLk6GJQsqaUBKTNV-3" value="Lamp doesn&#39;t work" style="rounded=1;whiteSpace=wrap;html=1;fontSize=12;glass=0;strokeWidth=1;shadow=0;" parent="WIyWlLk6GJQsqaUBKTNV-1" vertex="1">
          <mxGeometry x="160" y="80" width="120" height="40" as="geometry" />
        </mxCell>
        <mxCell id="WIyWlLk6GJQsqaUBKTNV-4" value="Yes" style="rounded=0;html=1;jettySize=auto;orthogonalLoop=1;fontSize=11;endArrow=block;endFill=0;endSize=8;strokeWidth=1;shadow=0;labelBackgroundColor=none;edgeStyle=orthogonalEdgeStyle;" parent="WIyWlLk6GJQsqaUBKTNV-1" source="WIyWlLk6GJQsqaUBKTNV-6" target="WIyWlLk6GJQsqaUBKTNV-10" edge="1">
          <mxGeometry y="20" relative="1" as="geometry">
            <mxPoint as="offset" />
          </mxGeometry>
        </mxCell>
        <mxCell id="WIyWlLk6GJQsqaUBKTNV-5" value="No" style="edgeStyle=orthogonalEdgeStyle;rounded=0;html=1;jettySize=auto;orthogonalLoop=1;fontSize=11;endArrow=block;endFill=0;endSize=8;strokeWidth=1;shadow=0;labelBackgroundColor=none;" parent="WIyWlLk6GJQsqaUBKTNV-1" source="WIyWlLk6GJQsqaUBKTNV-6" target="WIyWlLk6GJQsqaUBKTNV-7" edge="1">
          <mxGeometry y="10" relative="1" as="geometry">
            <mxPoint as="offset" />
          </mxGeometry>
        </mxCell>
        <mxCell id="WIyWlLk6GJQsqaUBKTNV-6" value="Lamp&lt;br&gt;plugged in?" style="rhombus;whiteSpace=wrap;html=1;shadow=0;fontFamily=Helvetica;fontSize=12;align=center;strokeWidth=1;spacing=6;spacingTop=-4;" parent="WIyWlLk6GJQsqaUBKTNV-1" vertex="1">
          <mxGeometry x="170" y="170" width="100" height="80" as="geometry" />
        </mxCell>
        <mxCell id="WIyWlLk6GJQsqaUBKTNV-7" value="Plug in lamp" style="rounded=1;whiteSpace=wrap;html=1;fontSize=12;glass=0;strokeWidth=1;shadow=0;" parent="WIyWlLk6GJQsqaUBKTNV-1" vertex="1">
          <mxGeometry x="320" y="190" width="120" height="40" as="geometry" />
        </mxCell>
        <mxCell id="WIyWlLk6GJQsqaUBKTNV-8" value="No" style="rounded=0;html=1;jettySize=auto;orthogonalLoop=1;fontSize=11;endArrow=block;endFill=0;endSize=8;strokeWidth=1;shadow=0;labelBackgroundColor=none;edgeStyle=orthogonalEdgeStyle;" parent="WIyWlLk6GJQsqaUBKTNV-1" source="WIyWlLk6GJQsqaUBKTNV-10" target="WIyWlLk6GJQsqaUBKTNV-11" edge="1">
          <mxGeometry x="0.3333" y="20" relative="1" as="geometry">
            <mxPoint as="offset" />
          </mxGeometry>
        </mxCell>
        <mxCell id="WIyWlLk6GJQsqaUBKTNV-9" value="Yes" style="edgeStyle=orthogonalEdgeStyle;rounded=0;html=1;jettySize=auto;orthogonalLoop=1;fontSize=11;endArrow=block;endFill=0;endSize=8;strokeWidth=1;shadow=0;labelBackgroundColor=none;" parent="WIyWlLk6GJQsqaUBKTNV-1" source="WIyWlLk6GJQsqaUBKTNV-10" target="WIyWlLk6GJQsqaUBKTNV-12" edge="1">
          <mxGeometry y="10" relative="1" as="geometry">
            <mxPoint as="offset" />
          </mxGeometry>
        </mxCell>
        <mxCell id="WIyWlLk6GJQsqaUBKTNV-10" value="Bulb&lt;br&gt;burned out?" style="rhombus;whiteSpace=wrap;html=1;shadow=0;fontFamily=Helvetica;fontSize=12;align=center;strokeWidth=1;spacing=6;spacingTop=-4;" parent="WIyWlLk6GJQsqaUBKTNV-1" vertex="1">
          <mxGeometry x="170" y="290" width="100" height="80" as="geometry" />
        </mxCell>
        <mxCell id="WIyWlLk6GJQsqaUBKTNV-11" value="Repair Lamp" style="rounded=1;whiteSpace=wrap;html=1;fontSize=12;glass=0;strokeWidth=1;shadow=0;" parent="WIyWlLk6GJQsqaUBKTNV-1" vertex="1">
          <mxGeometry x="160" y="430" width="120" height="40" as="geometry" />
        </mxCell>
        <mxCell id="WIyWlLk6GJQsqaUBKTNV-12" value="Replace Bulb" style="rounded=1;whiteSpace=wrap;html=1;fontSize=12;glass=0;strokeWidth=1;shadow=0;" parent="WIyWlLk6GJQsqaUBKTNV-1" vertex="1">
          <mxGeometry x="320" y="310" width="120" height="40" as="geometry" />
        </mxCell>
        <mxCell id="AIc77t7kBm68XltENAZ_-29" value="" style="edgeStyle=orthogonalEdgeStyle;rounded=0;orthogonalLoop=1;jettySize=auto;html=1;" edge="1" parent="WIyWlLk6GJQsqaUBKTNV-1" source="AIc77t7kBm68XltENAZ_-1" target="AIc77t7kBm68XltENAZ_-5">
          <mxGeometry relative="1" as="geometry" />
        </mxCell>
        <mxCell id="AIc77t7kBm68XltENAZ_-1" value="START" style="ellipse;whiteSpace=wrap;html=1;" vertex="1" parent="WIyWlLk6GJQsqaUBKTNV-1">
          <mxGeometry x="72.5" y="-1150" width="120" height="40" as="geometry" />
        </mxCell>
        <mxCell id="AIc77t7kBm68XltENAZ_-3" value="Dsiplay string&lt;br&gt;Display questionC&lt;br&gt;Display question" style="shape=parallelogram;perimeter=parallelogramPerimeter;whiteSpace=wrap;html=1;fixedSize=1;" vertex="1" parent="WIyWlLk6GJQsqaUBKTNV-1">
          <mxGeometry x="380" y="-1090" width="140" height="50" as="geometry" />
        </mxCell>
        <mxCell id="AIc77t7kBm68XltENAZ_-4" value="" style="edgeStyle=orthogonalEdgeStyle;rounded=0;orthogonalLoop=1;jettySize=auto;html=1;" edge="1" parent="WIyWlLk6GJQsqaUBKTNV-1" source="AIc77t7kBm68XltENAZ_-5" target="AIc77t7kBm68XltENAZ_-7">
          <mxGeometry relative="1" as="geometry">
            <Array as="points">
              <mxPoint x="133" y="-1050" />
              <mxPoint x="133" y="-1050" />
            </Array>
          </mxGeometry>
        </mxCell>
        <mxCell id="AIc77t7kBm68XltENAZ_-5" value="CALL&amp;nbsp; videoMode" style="shape=process;whiteSpace=wrap;html=1;backgroundOutline=1;" vertex="1" parent="WIyWlLk6GJQsqaUBKTNV-1">
          <mxGeometry x="72.5" y="-1090" width="127.5" height="30" as="geometry" />
        </mxCell>
        <mxCell id="AIc77t7kBm68XltENAZ_-6" value="" style="edgeStyle=orthogonalEdgeStyle;rounded=0;orthogonalLoop=1;jettySize=auto;html=1;" edge="1" parent="WIyWlLk6GJQsqaUBKTNV-1" source="AIc77t7kBm68XltENAZ_-7" target="AIc77t7kBm68XltENAZ_-9">
          <mxGeometry relative="1" as="geometry" />
        </mxCell>
        <mxCell id="AIc77t7kBm68XltENAZ_-7" value="CALL&amp;nbsp; ifBig" style="shape=process;whiteSpace=wrap;html=1;backgroundOutline=1;" vertex="1" parent="WIyWlLk6GJQsqaUBKTNV-1">
          <mxGeometry x="72.5" y="-975.5" width="120" height="30" as="geometry" />
        </mxCell>
        <mxCell id="AIc77t7kBm68XltENAZ_-8" value="" style="edgeStyle=orthogonalEdgeStyle;rounded=0;orthogonalLoop=1;jettySize=auto;html=1;" edge="1" parent="WIyWlLk6GJQsqaUBKTNV-1" source="AIc77t7kBm68XltENAZ_-9" target="AIc77t7kBm68XltENAZ_-11">
          <mxGeometry relative="1" as="geometry" />
        </mxCell>
        <mxCell id="AIc77t7kBm68XltENAZ_-9" value="AH&amp;nbsp;&lt;font style=&quot;font-size: 10px&quot;&gt;&amp;lt;&lt;/font&gt;&lt;font style=&quot;font-size: 13px&quot;&gt;---&lt;/font&gt;&amp;nbsp;00" style="rounded=1;whiteSpace=wrap;html=1;fontSize=12;glass=0;strokeWidth=1;shadow=0;" vertex="1" parent="WIyWlLk6GJQsqaUBKTNV-1">
          <mxGeometry x="82.5" y="-930.5" width="100" height="20" as="geometry" />
        </mxCell>
        <mxCell id="AIc77t7kBm68XltENAZ_-10" value="" style="edgeStyle=orthogonalEdgeStyle;rounded=0;orthogonalLoop=1;jettySize=auto;html=1;" edge="1" parent="WIyWlLk6GJQsqaUBKTNV-1" source="AIc77t7kBm68XltENAZ_-11" target="AIc77t7kBm68XltENAZ_-13">
          <mxGeometry relative="1" as="geometry" />
        </mxCell>
        <mxCell id="AIc77t7kBm68XltENAZ_-11" value="INT 16h" style="shape=process;whiteSpace=wrap;html=1;backgroundOutline=1;" vertex="1" parent="WIyWlLk6GJQsqaUBKTNV-1">
          <mxGeometry x="72.5" y="-890" width="120" height="20" as="geometry" />
        </mxCell>
        <mxCell id="AIc77t7kBm68XltENAZ_-12" value="" style="edgeStyle=orthogonalEdgeStyle;rounded=0;orthogonalLoop=1;jettySize=auto;html=1;" edge="1" parent="WIyWlLk6GJQsqaUBKTNV-1" source="AIc77t7kBm68XltENAZ_-13" target="AIc77t7kBm68XltENAZ_-15">
          <mxGeometry relative="1" as="geometry" />
        </mxCell>
        <mxCell id="AIc77t7kBm68XltENAZ_-13" value="CALL&amp;nbsp; combine" style="shape=process;whiteSpace=wrap;html=1;backgroundOutline=1;" vertex="1" parent="WIyWlLk6GJQsqaUBKTNV-1">
          <mxGeometry x="72.5" y="-849.5" width="120" height="29.5" as="geometry" />
        </mxCell>
        <mxCell id="AIc77t7kBm68XltENAZ_-14" value="" style="edgeStyle=orthogonalEdgeStyle;rounded=0;orthogonalLoop=1;jettySize=auto;html=1;" edge="1" parent="WIyWlLk6GJQsqaUBKTNV-1" source="AIc77t7kBm68XltENAZ_-15" target="AIc77t7kBm68XltENAZ_-16">
          <mxGeometry relative="1" as="geometry" />
        </mxCell>
        <mxCell id="AIc77t7kBm68XltENAZ_-15" value="CL&amp;nbsp;&lt;font style=&quot;font-size: 10px&quot;&gt;&amp;lt;&lt;/font&gt;&lt;font style=&quot;font-size: 13px&quot;&gt;---&lt;/font&gt;&amp;nbsp;00" style="rounded=1;whiteSpace=wrap;html=1;fontSize=12;glass=0;strokeWidth=1;shadow=0;" vertex="1" parent="WIyWlLk6GJQsqaUBKTNV-1">
          <mxGeometry x="82.5" y="-800" width="100" height="20" as="geometry" />
        </mxCell>
        <mxCell id="AIc77t7kBm68XltENAZ_-16" value="[SI] = 78h" style="rhombus;whiteSpace=wrap;html=1;shadow=0;fontFamily=Helvetica;fontSize=12;align=center;strokeWidth=1;spacing=6;spacingTop=-4;" vertex="1" parent="WIyWlLk6GJQsqaUBKTNV-1">
          <mxGeometry x="80" y="-765" width="100" height="40" as="geometry" />
        </mxCell>
        <mxCell id="AIc77t7kBm68XltENAZ_-17" value="No" style="edgeStyle=orthogonalEdgeStyle;rounded=0;html=1;jettySize=auto;orthogonalLoop=1;fontSize=11;endArrow=block;endFill=0;endSize=8;strokeWidth=1;shadow=0;labelBackgroundColor=none;exitX=0.5;exitY=1;exitDx=0;exitDy=0;entryX=0.5;entryY=0;entryDx=0;entryDy=0;" edge="1" parent="WIyWlLk6GJQsqaUBKTNV-1" source="AIc77t7kBm68XltENAZ_-16" target="AIc77t7kBm68XltENAZ_-19">
          <mxGeometry x="-0.5238" y="10" relative="1" as="geometry">
            <mxPoint as="offset" />
            <mxPoint x="130.5" y="-665" as="targetPoint" />
            <Array as="points" />
            <mxPoint x="127.5" y="-665" as="sourcePoint" />
          </mxGeometry>
        </mxCell>
        <mxCell id="AIc77t7kBm68XltENAZ_-18" value="Yes" style="rounded=0;html=1;jettySize=auto;orthogonalLoop=1;fontSize=11;endArrow=block;endFill=0;endSize=8;strokeWidth=1;shadow=0;labelBackgroundColor=none;edgeStyle=orthogonalEdgeStyle;exitX=0;exitY=0.5;exitDx=0;exitDy=0;" edge="1" parent="WIyWlLk6GJQsqaUBKTNV-1" source="AIc77t7kBm68XltENAZ_-16">
          <mxGeometry x="-0.8925" y="10" relative="1" as="geometry">
            <mxPoint as="offset" />
            <mxPoint x="130" y="-600" as="targetPoint" />
            <Array as="points">
              <mxPoint x="38" y="-745" />
              <mxPoint x="38" y="-600" />
            </Array>
            <mxPoint x="77.5" y="-745" as="sourcePoint" />
          </mxGeometry>
        </mxCell>
        <mxCell id="AIc77t7kBm68XltENAZ_-19" value="[SI] &amp;gt; 78h" style="rhombus;whiteSpace=wrap;html=1;shadow=0;fontFamily=Helvetica;fontSize=12;align=center;strokeWidth=1;spacing=6;spacingTop=-4;" vertex="1" parent="WIyWlLk6GJQsqaUBKTNV-1">
          <mxGeometry x="80" y="-704" width="100" height="40" as="geometry" />
        </mxCell>
        <mxCell id="AIc77t7kBm68XltENAZ_-20" value="No" style="edgeStyle=orthogonalEdgeStyle;rounded=0;html=1;jettySize=auto;orthogonalLoop=1;fontSize=11;endArrow=block;endFill=0;endSize=8;strokeWidth=1;shadow=0;labelBackgroundColor=none;exitX=0.5;exitY=1;exitDx=0;exitDy=0;entryX=0.5;entryY=0;entryDx=0;entryDy=0;" edge="1" parent="WIyWlLk6GJQsqaUBKTNV-1" source="AIc77t7kBm68XltENAZ_-19" target="AIc77t7kBm68XltENAZ_-23">
          <mxGeometry x="-0.6832" y="10" relative="1" as="geometry">
            <mxPoint as="offset" />
            <mxPoint x="130.5" y="-565" as="targetPoint" />
            <Array as="points" />
            <mxPoint x="127.5" y="-565.02" as="sourcePoint" />
          </mxGeometry>
        </mxCell>
        <mxCell id="AIc77t7kBm68XltENAZ_-21" value="Yes" style="rounded=0;html=1;jettySize=auto;orthogonalLoop=1;fontSize=11;endArrow=block;endFill=0;endSize=8;strokeWidth=1;shadow=0;labelBackgroundColor=none;edgeStyle=orthogonalEdgeStyle;exitX=1;exitY=0.5;exitDx=0;exitDy=0;" edge="1" parent="WIyWlLk6GJQsqaUBKTNV-1" source="AIc77t7kBm68XltENAZ_-19">
          <mxGeometry x="-0.8925" y="10" relative="1" as="geometry">
            <mxPoint as="offset" />
            <mxPoint x="130" y="-480" as="targetPoint" />
            <Array as="points">
              <mxPoint x="228" y="-684" />
              <mxPoint x="228" y="-480" />
              <mxPoint x="130" y="-480" />
            </Array>
            <mxPoint x="157.5" y="-404.52" as="sourcePoint" />
          </mxGeometry>
        </mxCell>
        <mxCell id="AIc77t7kBm68XltENAZ_-22" value="" style="edgeStyle=orthogonalEdgeStyle;rounded=0;orthogonalLoop=1;jettySize=auto;html=1;" edge="1" parent="WIyWlLk6GJQsqaUBKTNV-1" source="AIc77t7kBm68XltENAZ_-23" target="AIc77t7kBm68XltENAZ_-25">
          <mxGeometry relative="1" as="geometry" />
        </mxCell>
        <mxCell id="AIc77t7kBm68XltENAZ_-23" value="CALL&amp;nbsp; square_Root" style="shape=process;whiteSpace=wrap;html=1;backgroundOutline=1;" vertex="1" parent="WIyWlLk6GJQsqaUBKTNV-1">
          <mxGeometry x="61.25" y="-638.75" width="137.5" height="29.5" as="geometry" />
        </mxCell>
        <mxCell id="AIc77t7kBm68XltENAZ_-24" value="" style="edgeStyle=orthogonalEdgeStyle;rounded=0;orthogonalLoop=1;jettySize=auto;html=1;" edge="1" parent="WIyWlLk6GJQsqaUBKTNV-1" source="AIc77t7kBm68XltENAZ_-25" target="AIc77t7kBm68XltENAZ_-27">
          <mxGeometry relative="1" as="geometry" />
        </mxCell>
        <mxCell id="AIc77t7kBm68XltENAZ_-25" value="CALL&amp;nbsp; print_Y" style="shape=process;whiteSpace=wrap;html=1;backgroundOutline=1;" vertex="1" parent="WIyWlLk6GJQsqaUBKTNV-1">
          <mxGeometry x="71.88" y="-584" width="116.25" height="29.5" as="geometry" />
        </mxCell>
        <mxCell id="AIc77t7kBm68XltENAZ_-26" value="" style="edgeStyle=orthogonalEdgeStyle;rounded=0;orthogonalLoop=1;jettySize=auto;html=1;" edge="1" parent="WIyWlLk6GJQsqaUBKTNV-1" source="AIc77t7kBm68XltENAZ_-27" target="AIc77t7kBm68XltENAZ_-28">
          <mxGeometry relative="1" as="geometry" />
        </mxCell>
        <mxCell id="AIc77t7kBm68XltENAZ_-27" value="CALL&amp;nbsp; all_Y_values" style="shape=process;whiteSpace=wrap;html=1;backgroundOutline=1;" vertex="1" parent="WIyWlLk6GJQsqaUBKTNV-1">
          <mxGeometry x="61.25" y="-530" width="137.5" height="29.5" as="geometry" />
        </mxCell>
        <mxCell id="AIc77t7kBm68XltENAZ_-28" value="END" style="ellipse;whiteSpace=wrap;html=1;" vertex="1" parent="WIyWlLk6GJQsqaUBKTNV-1">
          <mxGeometry x="69.99999999999999" y="-460" width="120" height="40" as="geometry" />
        </mxCell>
      </root>
    </mxGraphModel>
  </diagram>
</mxfile>
